<?xml version="1.0" encoding="UTF-8" standalone="no"?>
<svg
   xmlns:dc="http://purl.org/dc/elements/1.1/"
   xmlns:cc="http://creativecommons.org/ns#"
   xmlns:rdf="http://www.w3.org/1999/02/22-rdf-syntax-ns#"
   xmlns:svg="http://www.w3.org/2000/svg"
   xmlns="http://www.w3.org/2000/svg"
   xmlns:sodipodi="http://sodipodi.sourceforge.net/DTD/sodipodi-0.dtd"
   xmlns:inkscape="http://www.inkscape.org/namespaces/inkscape"
   width="29"
   height="24"
   viewBox="0 0 29 24"
   fill="none"
   version="1.1"
   id="svg34"
   sodipodi:docname="svgHomeSelected.svg"
   inkscape:version="1.0.1 (3bc2e813f5, 2020-09-07)">
  <metadata
     id="metadata40">
    <rdf:RDF>
      <cc:Work
         rdf:about="">
        <dc:format>image/svg+xml</dc:format>
        <dc:type
           rdf:resource="http://purl.org/dc/dcmitype/StillImage" />
      </cc:Work>
    </rdf:RDF>
  </metadata>
  <defs
     id="defs38" />
  <sodipodi:namedview
     pagecolor="#ffffff"
     bordercolor="#666666"
     borderopacity="1"
     objecttolerance="10"
     gridtolerance="10"
     guidetolerance="10"
     inkscape:pageopacity="0"
     inkscape:pageshadow="2"
     inkscape:window-width="1920"
     inkscape:window-height="1017"
     id="namedview36"
     showgrid="false"
     inkscape:zoom="8.6145833"
     inkscape:cx="-2.0922424"
     inkscape:cy="10.572381"
     inkscape:window-x="-8"
     inkscape:window-y="-8"
     inkscape:window-maximized="1"
     inkscape:current-layer="svg34"
     inkscape:document-rotation="0" />
  <path
     d="M1.17857 2.93005L1.17748 3.03174L1.17317 3.44078C1.1695 3.79404 1.16433 4.3007 1.15833 4.91418C1.14635 6.14117 1.13111 7.79538 1.11804 9.50439C1.09182 12.9322 1.07469 16.5532 1.10894 17.4165L1.17857 2.93005ZM1.17857 2.93005C1.17985 2.92365 1.18136 2.91631 1.18312 2.90808C1.19158 2.86848 1.20564 2.80901 1.22696 2.73624C1.2701 2.58899 1.3403 2.39641 1.44797 2.20619C1.6626 1.82701 1.98965 1.50884 2.52885 1.48433L2.52886 1.48433C3.28623 1.44988 7.18554 1.44966 10.9203 1.45847C12.7822 1.46287 14.5958 1.46946 15.9441 1.47495C16.6182 1.4777 17.1759 1.48017 17.565 1.48196L18.0159 1.48407L18.0931 1.48444C18.1346 1.49954 18.194 1.5223 18.2655 1.55297C18.4175 1.61825 18.6163 1.71618 18.8116 1.84764C19.2214 2.12341 19.5044 2.46684 19.5044 2.88225C19.5044 3.55161 19.508 4.12538 19.5116 4.53192C19.5134 4.73521 19.5152 4.89673 19.5166 5.00753L19.5182 5.13458L19.5187 5.16748L19.5188 5.17591L19.5189 5.17808L19.5189 5.17864L19.5189 5.17879L19.5189 5.17886L19.5262 5.6651L20.0125 5.67126L22.4267 5.70182C22.4563 5.71516 22.4926 5.73175 22.5339 5.75118C22.6553 5.80822 22.8175 5.88836 22.9841 5.98181C23.1528 6.07644 23.3147 6.17846 23.4411 6.27791C23.5039 6.32736 23.551 6.37082 23.5837 6.4068C23.6131 6.43922 23.6218 6.45574 23.6219 6.45568C23.6219 6.45567 23.6217 6.45519 23.6213 6.45424C23.6609 6.54674 23.7247 6.63461 23.7696 6.69372C23.8229 6.76391 23.8892 6.84364 23.9634 6.92894C24.1123 7.10014 24.3088 7.31181 24.5333 7.54625C24.9831 8.01609 25.5605 8.59334 26.1281 9.15222C26.6965 9.71173 27.2579 10.2555 27.677 10.6592C27.8866 10.8611 28.0608 11.0281 28.1826 11.1447L28.2724 11.2305C28.2743 11.2381 28.2763 11.2459 28.2784 11.254C28.3034 11.352 28.3368 11.4899 28.3702 11.6484C28.4387 11.9737 28.5 12.3542 28.5 12.6522C28.5 12.9961 28.4651 14.6051 28.4299 16.1397C28.4123 16.9044 28.3947 17.6472 28.3816 18.1989L28.3713 18.625L3.64109 18.7252L3.63972 18.7252L3.62007 18.7247C3.60187 18.7241 3.57382 18.7231 3.5373 18.7212C3.46414 18.7173 3.35768 18.7099 3.22901 18.6958C2.96941 18.6674 2.63026 18.6131 2.29548 18.5113C1.57651 18.2927 1.13012 17.9449 1.10894 17.4167L1.17857 2.93005Z"
     fill="#8baa83"
     stroke="black"
     id="path26"
     style="fill:#8baa83;fill-opacity:1" />
  <path
     d="M20.0188 6.56737H22.0711L27.2784 11.8497L20.0188 11.7795V6.56737Z"
     fill="black"
     id="path28"
     style="fill:#8baa83;fill-opacity:1" />
  <path
     d="M8.23473 22.6696C10.2867 22.6696 11.9501 21.1508 11.9501 19.2774C11.9501 17.4039 10.2867 15.8851 8.23473 15.8851C6.18282 15.8851 4.51941 17.4039 4.51941 19.2774C4.51941 21.1508 6.18282 22.6696 8.23473 22.6696Z"
     fill="#8baa83"
     stroke="black"
     stroke-width="1.57307"
     stroke-linecap="round"
     stroke-linejoin="round"
     id="path30"
     style="fill:#8baa83;fill-opacity:1;stroke-width:1;stroke-miterlimit:4;stroke-dasharray:none" />
  <path
     d="M22.825 22.7749C24.8769 22.7749 26.5403 21.2561 26.5403 19.3826C26.5403 17.5092 24.8769 15.9904 22.825 15.9904C20.7731 15.9904 19.1096 17.5092 19.1096 19.3826C19.1096 21.2561 20.7731 22.7749 22.825 22.7749Z"
     fill="#8baa83"
     stroke="black"
     stroke-width="1.57307"
     stroke-linecap="round"
     stroke-linejoin="round"
     id="path32"
     style="fill:#8baa83;fill-opacity:1;stroke-width:1;stroke-miterlimit:4;stroke-dasharray:none" />
</svg>
