<svg width="169" height="236" viewBox="0 0 169 236" fill="none" xmlns="http://www.w3.org/2000/svg">
<g filter="url(#filter0_d)">
<g filter="url(#filter1_d)">
<path fill-rule="evenodd" clip-rule="evenodd" d="M83.9587 31.9741C102.877 31.9741 118.161 47.2576 118.161 66.1761C118.161 85.0946 102.877 100.378 83.9587 100.378C65.0402 100.378 49.7567 85.0946 49.7567 66.1761C49.7567 47.3402 65.1228 31.9741 83.9587 31.9741ZM83.9587 29C104.529 29 121.135 45.6879 121.135 66.1761C121.135 86.7469 104.447 103.352 83.9587 103.352C63.4705 103.352 46.7826 86.6643 46.7826 66.1761C46.7826 45.6879 63.4705 29 83.9587 29Z" fill="#717171"/>
</g>
<path d="M41.8453 150.472C39.7573 150.472 38.1613 151.252 37.0573 152.812C35.9533 154.372 35.4013 156.508 35.4013 159.22C35.4013 161.956 35.9053 164.08 36.9133 165.592C37.9453 167.08 39.5893 167.824 41.8453 167.824C42.9013 167.824 43.9453 167.704 44.9773 167.464C46.0333 167.224 47.1733 166.888 48.3973 166.456V171.028C47.2693 171.484 46.1533 171.82 45.0493 172.036C43.9453 172.252 42.7093 172.36 41.3413 172.36C38.7013 172.36 36.5173 171.82 34.7893 170.74C33.0853 169.636 31.8253 168.1 31.0093 166.132C30.1933 164.14 29.7853 161.824 29.7853 159.184C29.7853 156.592 30.2533 154.3 31.1893 152.308C32.1253 150.316 33.4813 148.756 35.2573 147.628C37.0573 146.5 39.2533 145.936 41.8453 145.936C43.1173 145.936 44.3893 146.104 45.6613 146.44C46.9573 146.752 48.1933 147.184 49.3693 147.736L47.6053 152.164C46.6453 151.708 45.6733 151.312 44.6893 150.976C43.7293 150.64 42.7813 150.472 41.8453 150.472ZM68.6551 172H53.8591V146.296H68.6551V150.76H59.2951V156.412H68.0071V160.876H59.2951V167.5H68.6551V172ZM89.7357 172L87.8637 165.88H78.5037L76.6317 172H70.7637L79.8357 146.188H86.4957L95.6037 172H89.7357ZM86.5677 161.308L84.6957 155.332C84.5757 154.924 84.4197 154.408 84.2277 153.784C84.0357 153.16 83.8437 152.524 83.6517 151.876C83.4597 151.228 83.3037 150.664 83.1837 150.184C83.0637 150.664 82.8957 151.264 82.6797 151.984C82.4877 152.68 82.2957 153.352 82.1037 154C81.9357 154.624 81.8037 155.068 81.7077 155.332L79.8717 161.308H86.5677ZM114.015 164.872C114.015 167.152 113.187 168.976 111.531 170.344C109.899 171.688 107.571 172.36 104.547 172.36C101.835 172.36 99.4111 171.844 97.2751 170.812V165.736C98.4991 166.264 99.7591 166.756 101.055 167.212C102.375 167.644 103.683 167.86 104.979 167.86C106.323 167.86 107.271 167.608 107.823 167.104C108.399 166.576 108.687 165.916 108.687 165.124C108.687 164.476 108.459 163.924 108.003 163.468C107.571 163.012 106.983 162.592 106.239 162.208C105.495 161.8 104.643 161.368 103.683 160.912C103.083 160.624 102.435 160.288 101.739 159.904C101.043 159.496 100.371 159.004 99.7231 158.428C99.0991 157.828 98.5831 157.108 98.1751 156.268C97.7671 155.428 97.5631 154.42 97.5631 153.244C97.5631 150.94 98.3431 149.152 99.9031 147.88C101.463 146.584 103.587 145.936 106.275 145.936C107.619 145.936 108.891 146.092 110.091 146.404C111.315 146.716 112.587 147.16 113.907 147.736L112.143 151.984C110.967 151.504 109.911 151.132 108.975 150.868C108.039 150.604 107.079 150.472 106.095 150.472C105.063 150.472 104.271 150.712 103.719 151.192C103.167 151.672 102.891 152.296 102.891 153.064C102.891 153.976 103.299 154.696 104.115 155.224C104.931 155.752 106.143 156.4 107.751 157.168C109.071 157.792 110.187 158.44 111.099 159.112C112.035 159.784 112.755 160.576 113.259 161.488C113.763 162.4 114.015 163.528 114.015 164.872ZM134.419 172L132.547 165.88H123.187L121.315 172H115.447L124.519 146.188H131.179L140.287 172H134.419ZM131.251 161.308L129.379 155.332C129.259 154.924 129.103 154.408 128.911 153.784C128.719 153.16 128.527 152.524 128.335 151.876C128.143 151.228 127.987 150.664 127.867 150.184C127.747 150.664 127.579 151.264 127.363 151.984C127.171 152.68 126.979 153.352 126.787 154C126.619 154.624 126.487 155.068 126.391 155.332L124.555 161.308H131.251ZM19.6473 221H4.85133V195.296H19.6473V199.76H10.2873V205.412H18.9993V209.876H10.2873V216.5H19.6473V221ZM40.1519 213.872C40.1519 216.152 39.3239 217.976 37.6679 219.344C36.0359 220.688 33.7079 221.36 30.6839 221.36C27.9719 221.36 25.5479 220.844 23.4119 219.812V214.736C24.6359 215.264 25.8959 215.756 27.1919 216.212C28.5119 216.644 29.8199 216.86 31.1159 216.86C32.4599 216.86 33.4079 216.608 33.9599 216.104C34.5359 215.576 34.8239 214.916 34.8239 214.124C34.8239 213.476 34.5959 212.924 34.1399 212.468C33.7079 212.012 33.1199 211.592 32.3759 211.208C31.6319 210.8 30.7799 210.368 29.8199 209.912C29.2199 209.624 28.5719 209.288 27.8759 208.904C27.1799 208.496 26.5079 208.004 25.8599 207.428C25.2359 206.828 24.7199 206.108 24.3119 205.268C23.9039 204.428 23.6999 203.42 23.6999 202.244C23.6999 199.94 24.4799 198.152 26.0399 196.88C27.5999 195.584 29.7239 194.936 32.4119 194.936C33.7559 194.936 35.0279 195.092 36.2279 195.404C37.4519 195.716 38.7239 196.16 40.0439 196.736L38.2799 200.984C37.1039 200.504 36.0479 200.132 35.1119 199.868C34.1759 199.604 33.2159 199.472 32.2319 199.472C31.1999 199.472 30.4079 199.712 29.8559 200.192C29.3039 200.672 29.0279 201.296 29.0279 202.064C29.0279 202.976 29.4359 203.696 30.2519 204.224C31.0679 204.752 32.2799 205.4 33.8879 206.168C35.2079 206.792 36.3239 207.44 37.2359 208.112C38.1719 208.784 38.8919 209.576 39.3959 210.488C39.8999 211.4 40.1519 212.528 40.1519 213.872ZM54.724 221H49.288V199.832H42.304V195.296H61.708V199.832H54.724V221ZM88.2965 208.112C88.2965 210.776 87.8525 213.104 86.9645 215.096C86.1005 217.064 84.7685 218.6 82.9685 219.704C81.1685 220.808 78.8645 221.36 76.0565 221.36C73.2725 221.36 70.9685 220.808 69.1445 219.704C67.3445 218.6 66.0005 217.052 65.1125 215.06C64.2485 213.068 63.8165 210.74 63.8165 208.076C63.8165 205.412 64.2485 203.096 65.1125 201.128C66.0005 199.16 67.3445 197.636 69.1445 196.556C70.9685 195.452 73.2845 194.9 76.0925 194.9C78.8765 194.9 81.1685 195.452 82.9685 196.556C84.7685 197.636 86.1005 199.172 86.9645 201.164C87.8525 203.132 88.2965 205.448 88.2965 208.112ZM69.5405 208.112C69.5405 210.8 70.0565 212.924 71.0885 214.484C72.1205 216.02 73.7765 216.788 76.0565 216.788C78.3845 216.788 80.0525 216.02 81.0605 214.484C82.0685 212.924 82.5725 210.8 82.5725 208.112C82.5725 205.4 82.0685 203.276 81.0605 201.74C80.0525 200.204 78.3965 199.436 76.0925 199.436C73.7885 199.436 72.1205 200.204 71.0885 201.74C70.0565 203.276 69.5405 205.4 69.5405 208.112ZM116.949 208.112C116.949 210.992 116.433 213.488 115.401 215.6C114.369 217.688 112.773 219.224 110.613 220.208L116.805 227.12H109.821L105.105 221.36H104.709C101.925 221.36 99.6209 220.808 97.7969 219.704C95.9969 218.6 94.6529 217.052 93.7649 215.06C92.9009 213.068 92.4689 210.74 92.4689 208.076C92.4689 205.412 92.9009 203.096 93.7649 201.128C94.6529 199.16 95.9969 197.636 97.7969 196.556C99.6209 195.452 101.937 194.9 104.745 194.9C107.529 194.9 109.821 195.452 111.621 196.556C113.421 197.636 114.753 199.172 115.617 201.164C116.505 203.132 116.949 205.448 116.949 208.112ZM98.1929 208.112C98.1929 210.8 98.7089 212.924 99.7409 214.484C100.773 216.02 102.429 216.788 104.709 216.788C107.037 216.788 108.705 216.02 109.713 214.484C110.721 212.924 111.225 210.8 111.225 208.112C111.225 205.4 110.721 203.276 109.713 201.74C108.705 200.204 107.049 199.436 104.745 199.436C102.441 199.436 100.773 200.204 99.7409 201.74C98.7089 203.276 98.1929 205.4 98.1929 208.112ZM143.189 195.296V211.928C143.189 213.704 142.793 215.312 142.001 216.752C141.233 218.168 140.057 219.296 138.473 220.136C136.913 220.952 134.933 221.36 132.533 221.36C129.125 221.36 126.533 220.496 124.757 218.768C122.981 217.016 122.093 214.712 122.093 211.856V195.296H127.529V211.028C127.529 213.14 127.961 214.628 128.825 215.492C129.689 216.356 130.973 216.788 132.677 216.788C134.453 216.788 135.737 216.32 136.529 215.384C137.345 214.448 137.753 212.984 137.753 210.992V195.296H143.189ZM164.28 221H149.484V195.296H164.28V199.76H154.92V205.412H163.632V209.876H154.92V216.5H164.28V221Z" fill="#395033"/>
<path d="M82.192 92.712V86.44C79.4187 86.3547 76.944 86.0987 74.768 85.672C72.592 85.2027 70.608 84.5627 68.816 83.752V75.496C70.5653 76.3493 72.6773 77.1387 75.152 77.864C77.6267 78.5467 79.9733 78.952 82.192 79.08V69.416C78.9067 68.136 76.2613 66.8987 74.256 65.704C72.2933 64.4667 70.8853 63.1013 70.032 61.608C69.1787 60.1147 68.752 58.3227 68.752 56.232C68.752 53.032 69.9893 50.4933 72.464 48.616C74.9813 46.696 78.224 45.5653 82.192 45.224V40.424H86.48V45.096C91.216 45.2667 95.5253 46.2267 99.408 47.976L96.464 55.272C94.7573 54.5467 93.0293 53.992 91.28 53.608C89.5733 53.224 87.9733 52.968 86.48 52.84V62.056C88.784 62.9093 90.9813 63.848 93.072 64.872C95.1627 65.8533 96.848 67.112 98.128 68.648C99.4507 70.184 100.112 72.2107 100.112 74.728C100.112 77.8427 98.9813 80.4453 96.72 82.536C94.4587 84.6267 91.0453 85.8853 86.48 86.312V92.712H82.192ZM82.192 60.328V52.968C79.504 53.352 78.16 54.44 78.16 56.232C78.16 57.128 78.48 57.8747 79.12 58.472C79.76 59.0693 80.784 59.688 82.192 60.328ZM86.48 78.888C89.296 78.376 90.704 77.1387 90.704 75.176C90.704 74.3227 90.3413 73.5973 89.616 73C88.9333 72.36 87.888 71.72 86.48 71.08V78.888Z" fill="#395033"/>
<g filter="url(#filter2_d)">
<path d="M97 28.5C87.5 24 75 25 68 29L77 0.999998C89.5 9.5 106.238 32.8757 97 28.5Z" fill="#395033"/>
<path d="M97 28.5C87.5 24 75 25 68 29L77 0.999998C89.5 9.5 106.238 32.8757 97 28.5Z" stroke="#395033"/>
</g>
<g filter="url(#filter3_d)">
<path d="M121.5 79.5C126 70 125 57.5 121 50.5L149 59.5C140.5 72 117.124 88.7376 121.5 79.5Z" fill="#395033"/>
<path d="M121.5 79.5C126 70 125 57.5 121 50.5L149 59.5C140.5 72 117.124 88.7376 121.5 79.5Z" stroke="#395033"/>
</g>
</g>
<defs>
<filter id="filter0_d" x="0.851318" y="0.210724" width="167.429" height="234.909" filterUnits="userSpaceOnUse" color-interpolation-filters="sRGB">
<feFlood flood-opacity="0" result="BackgroundImageFix"/>
<feColorMatrix in="SourceAlpha" type="matrix" values="0 0 0 0 0 0 0 0 0 0 0 0 0 0 0 0 0 0 127 0"/>
<feOffset dy="4"/>
<feGaussianBlur stdDeviation="2"/>
<feColorMatrix type="matrix" values="0 0 0 0 0 0 0 0 0 0 0 0 0 0 0 0 0 0 0.25 0"/>
<feBlend mode="normal" in2="BackgroundImageFix" result="effect1_dropShadow"/>
<feBlend mode="normal" in="SourceGraphic" in2="effect1_dropShadow" result="shape"/>
</filter>
<filter id="filter1_d" x="42.7826" y="29" width="82.3522" height="82.3522" filterUnits="userSpaceOnUse" color-interpolation-filters="sRGB">
<feFlood flood-opacity="0" result="BackgroundImageFix"/>
<feColorMatrix in="SourceAlpha" type="matrix" values="0 0 0 0 0 0 0 0 0 0 0 0 0 0 0 0 0 0 127 0"/>
<feOffset dy="4"/>
<feGaussianBlur stdDeviation="2"/>
<feColorMatrix type="matrix" values="0 0 0 0 0 0 0 0 0 0 0 0 0 0 0 0 0 0 0.25 0"/>
<feBlend mode="normal" in2="BackgroundImageFix" result="effect1_dropShadow"/>
<feBlend mode="normal" in="SourceGraphic" in2="effect1_dropShadow" result="shape"/>
</filter>
<filter id="filter2_d" x="63.1299" y="0.210724" width="41.0374" height="37.8624" filterUnits="userSpaceOnUse" color-interpolation-filters="sRGB">
<feFlood flood-opacity="0" result="BackgroundImageFix"/>
<feColorMatrix in="SourceAlpha" type="matrix" values="0 0 0 0 0 0 0 0 0 0 0 0 0 0 0 0 0 0 127 0"/>
<feOffset dy="4"/>
<feGaussianBlur stdDeviation="2"/>
<feColorMatrix type="matrix" values="0 0 0 0 0 0 0 0 0 0 0 0 0 0 0 0 0 0 0.25 0"/>
<feBlend mode="normal" in2="BackgroundImageFix" result="effect1_dropShadow"/>
<feBlend mode="normal" in="SourceGraphic" in2="effect1_dropShadow" result="shape"/>
</filter>
<filter id="filter3_d" x="115.927" y="49.6299" width="37.8624" height="41.0374" filterUnits="userSpaceOnUse" color-interpolation-filters="sRGB">
<feFlood flood-opacity="0" result="BackgroundImageFix"/>
<feColorMatrix in="SourceAlpha" type="matrix" values="0 0 0 0 0 0 0 0 0 0 0 0 0 0 0 0 0 0 127 0"/>
<feOffset dy="4"/>
<feGaussianBlur stdDeviation="2"/>
<feColorMatrix type="matrix" values="0 0 0 0 0 0 0 0 0 0 0 0 0 0 0 0 0 0 0.25 0"/>
<feBlend mode="normal" in2="BackgroundImageFix" result="effect1_dropShadow"/>
<feBlend mode="normal" in="SourceGraphic" in2="effect1_dropShadow" result="shape"/>
</filter>
</defs>
</svg>
