<svg width="29" height="24" viewBox="0 0 29 24" fill="none" xmlns="http://www.w3.org/2000/svg">
<path d="M3.63805 19.2253C3.63805 19.2253 0.679539 19.1934 0.609336 17.4365C0.539613 15.6797 0.679057 2.88225 0.679057 2.88225C0.679057 2.88225 0.96011 1.05512 2.50614 0.984845C4.05217 0.914522 18.1773 0.984845 18.1773 0.984845C18.1773 0.984845 20.0044 1.54705 20.0044 2.88225C20.0044 4.21746 20.0188 5.1713 20.0188 5.1713L22.5347 5.20315C22.5347 5.20315 23.87 5.76534 24.0809 6.25726C24.2916 6.74918 28.7189 10.9656 28.7189 10.9656C28.7189 10.9656 29 11.9495 29 12.6522C29 13.3549 28.8595 19.1231 28.8595 19.1231L3.63805 19.2253Z" fill="#395033"/>
<path d="M20.0188 6.56737H22.0711L27.2784 11.8497L20.0188 11.7795V6.56737Z" fill="white"/>
<path d="M8.23473 22.6696C10.2867 22.6696 11.9501 21.1508 11.9501 19.2774C11.9501 17.4039 10.2867 15.8851 8.23473 15.8851C6.18282 15.8851 4.51941 17.4039 4.51941 19.2774C4.51941 21.1508 6.18282 22.6696 8.23473 22.6696Z" fill="white" stroke="#395033" stroke-width="1.57307" stroke-linecap="round" stroke-linejoin="round"/>
<path d="M22.825 22.7749C24.8769 22.7749 26.5403 21.2561 26.5403 19.3826C26.5403 17.5092 24.8769 15.9904 22.825 15.9904C20.7731 15.9904 19.1096 17.5092 19.1096 19.3826C19.1096 21.2561 20.7731 22.7749 22.825 22.7749Z" fill="white" stroke="#395033" stroke-width="1.57307" stroke-linecap="round" stroke-linejoin="round"/>
</svg>
