<svg width="17" height="16" viewBox="0 0 17 16" fill="none" xmlns="http://www.w3.org/2000/svg">
<path d="M3.83982 8.65897C4.596 9.43981 5.51423 9.83023 6.59449 9.83023C7.67475 9.83023 8.59298 9.43981 9.34916 8.65897C10.1053 7.87813 10.4834 6.92996 10.4834 5.81448C10.4834 4.69899 10.1053 3.75082 9.34916 2.96998C8.59298 2.18914 7.67475 1.79872 6.59449 1.79872C5.51423 1.79872 4.596 2.18914 3.83982 2.96998C3.08364 3.75082 2.70555 4.69899 2.70555 5.81448C2.70555 6.92996 3.08364 7.87813 3.83982 8.65897ZM11.7797 9.83023L16.0738 14.2643L14.7775 15.6029L10.4834 11.1688V10.4577L10.2404 10.2067C9.21413 11.127 7.99883 11.5871 6.59449 11.5871C5.02811 11.5871 3.69129 11.0294 2.58402 9.91389C1.50375 8.7984 0.963623 7.43193 0.963623 5.81448C0.963623 4.19702 1.50375 2.83055 2.58402 1.71506C3.69129 0.571687 5.02811 0 6.59449 0C8.16087 0 9.48419 0.571687 10.5645 1.71506C11.6447 2.83055 12.1848 4.19702 12.1848 5.81448C12.1848 7.26461 11.7392 8.51953 10.848 9.57924L11.0911 9.83023H11.7797Z" fill="#717171"/>
</svg>
