<svg width="24" height="19" viewBox="0 0 24 19" fill="none" xmlns="http://www.w3.org/2000/svg">
<path d="M2.53574 15.1997C2.53574 15.1997 0.07464 15.1732 0.01624 13.7117C-0.04176 12.2502 0.0742396 1.6044 0.0742396 1.6044C0.0742396 1.6044 0.30804 0.08446 1.59414 0.026C2.88024 -0.0325 14.6305 0.026 14.6305 0.026C14.6305 0.026 16.1504 0.493681 16.1504 1.6044C16.1504 2.71512 16.1624 3.50859 16.1624 3.50859L18.2553 3.53509C18.2553 3.53509 19.3661 4.00276 19.5415 4.41197C19.7168 4.82119 23.3998 8.32873 23.3998 8.32873C23.3998 8.32873 23.6336 9.14716 23.6336 9.73175C23.6336 10.3163 23.5167 15.1147 23.5167 15.1147L2.53574 15.1997Z" fill="#A3A3A3"/>
<path d="M16.1624 4.66995H17.8696L22.2014 9.06418L16.1624 9.00578V4.66995Z" fill="white"/>
<path d="M6.3596 18.0649C8.06653 18.0649 9.45027 16.8015 9.45027 15.243C9.45027 13.6845 8.06653 12.4211 6.3596 12.4211C4.65266 12.4211 3.26892 13.6845 3.26892 15.243C3.26892 16.8015 4.65266 18.0649 6.3596 18.0649Z" fill="white" stroke="#A3A3A3" stroke-width="1.57307" stroke-linecap="round" stroke-linejoin="round"/>
<path d="M18.4968 18.1525C20.2037 18.1525 21.5875 16.8891 21.5875 15.3306C21.5875 13.7721 20.2037 12.5087 18.4968 12.5087C16.7899 12.5087 15.4061 13.7721 15.4061 15.3306C15.4061 16.8891 16.7899 18.1525 18.4968 18.1525Z" fill="white" stroke="#A3A3A3" stroke-width="1.57307" stroke-linecap="round" stroke-linejoin="round"/>
</svg>
